<svg xmlns="http://www.w3.org/2000/svg" width="63.644" height="63.668" viewBox="0 0 63.644 63.668">
  <path id="Path_5454" data-name="Path 5454" d="M1468.648,2890.351l-12.32-12.319a2.393,2.393,0,0,0-3.387,0l-.346.345-5.089-5.089a22.56,22.56,0,1,0-4.637,4.637l5.089,5.089-.345.346a2.393,2.393,0,0,0,0,3.387l12.319,12.32a2.4,2.4,0,0,0,3.388,0l5.328-5.328A2.4,2.4,0,0,0,1468.648,2890.351Zm-29.286-20.568a14.058,14.058,0,1,1,0-19.882A14.058,14.058,0,0,1,1439.362,2869.783Z" transform="translate(-1406.381 -2836.776)" fill="#f4f4f3" stroke="#231f20" stroke-width="1"/>
</svg>
