<svg xmlns="http://www.w3.org/2000/svg" width="65.474" height="69.31" viewBox="0 0 65.474 69.31">
  <path id="Path_5448" data-name="Path 5448" d="M891.266,3234.413a3.029,3.029,0,0,1-.841,3.282l-5.777,5.257a25.406,25.406,0,0,1,0,6.777l5.777,5.257a3.03,3.03,0,0,1,.841,3.282,33.9,33.9,0,0,1-2.095,4.576l-.627,1.081a35.146,35.146,0,0,1-2.949,4.176,3.05,3.05,0,0,1-3.268.907l-7.432-2.375a29.145,29.145,0,0,1-5.87,3.4l-1.668,7.618a3.2,3.2,0,0,1-2.428,2.375,34.965,34.965,0,0,1-5.79.467,34.22,34.22,0,0,1-5.55-.467,3.2,3.2,0,0,1-2.429-2.375l-1.667-7.618a26.214,26.214,0,0,1-5.871-3.4l-7.426,2.375a3.046,3.046,0,0,1-3.27-.907,35.041,35.041,0,0,1-2.95-4.176l-.624-1.081a33.228,33.228,0,0,1-2.1-4.576,3.031,3.031,0,0,1,.847-3.282l5.771-5.257a25.974,25.974,0,0,1,0-6.777l-5.771-5.257a3.024,3.024,0,0,1-.847-3.282,33.341,33.341,0,0,1,2.1-4.576l.623-1.081a34.6,34.6,0,0,1,2.951-4.169,3.031,3.031,0,0,1,3.27-.909l7.426,2.37a25.64,25.64,0,0,1,5.871-3.4l1.667-7.619a3.027,3.027,0,0,1,2.429-2.377,34.58,34.58,0,0,1,11.34,0,3.027,3.027,0,0,1,2.428,2.377l1.668,7.619a28.434,28.434,0,0,1,5.87,3.4l7.432-2.37a3.035,3.035,0,0,1,3.268.909,34.579,34.579,0,0,1,2.949,4.169l.627,1.081a33.891,33.891,0,0,1,2.095,4.576Zm-32.007,22.6a10.734,10.734,0,1,0-10.674-10.793A10.7,10.7,0,0,0,859.259,3257.014Z" transform="translate(-826.521 -3211.686)" fill="#f4f4f3" stroke="#231f20" stroke-width="1"/>
</svg>
