<svg xmlns="http://www.w3.org/2000/svg" width="51.408" height="58.609" viewBox="0 0 51.408 58.609">
  <path id="database" d="M50.408,8.23v5.144c0,4.533-11.289,8.23-25.2,8.23S0,17.907,0,13.374V8.23C0,3.7,11.289,0,25.2,0S50.408,3.7,50.408,8.23Zm0,11.573V31.377c0,4.533-11.289,8.23-25.2,8.23S0,35.909,0,31.377V19.8c5.415,3.729,15.326,5.465,25.2,5.465S44.993,23.532,50.408,19.8Zm0,18V49.379c0,4.533-11.289,8.23-25.2,8.23S0,53.912,0,49.379V37.806c5.415,3.729,15.326,5.465,25.2,5.465S44.993,41.535,50.408,37.806Z" transform="translate(0.5 0.5)" fill="#f4f4f3" stroke="#231f20" stroke-width="1"/>
</svg>
