<svg xmlns="http://www.w3.org/2000/svg" width="51.77" height="60.894" viewBox="0 0 51.77 60.894">
  <path id="Subtraction_4" data-name="Subtraction 4" d="M21111.129,14791.1h-38.076a6.388,6.388,0,0,1-6.344-6.415v-47.062a6.388,6.388,0,0,1,6.344-6.416h38.076a6.39,6.39,0,0,1,6.35,6.416v47.063A6.389,6.389,0,0,1,21111.129,14791.1Zm-32.072-16.681a2.14,2.14,0,0,0,0,4.279h26.07a2.14,2.14,0,0,0,0-4.279Zm0-15.4a2.139,2.139,0,0,0,0,4.278h26.07a2.139,2.139,0,0,0,0-4.278Zm0-15.408a2.14,2.14,0,0,0,0,4.279h26.07a2.14,2.14,0,0,0,0-4.279Z" transform="translate(-21066.209 -14730.711)" fill="#f4f4f3" stroke="#231f20" stroke-width="1"/>
</svg>
