<svg xmlns="http://www.w3.org/2000/svg" width="116.668" height="114.292" viewBox="0 0 116.668 114.292"><g transform="translate(-236.662 -1464.436)"><path d="M725,1268.045c-4.081-4.281-11.076-11.44-12.59-12.508v0a3.334,3.334,0,0,0-1.72-.715,3.528,3.528,0,0,0-1.717.667l-.036.025-.059.042h0c-1.559,1.12-8.505,8.23-12.568,12.491-19.524,20.465-59.422,67.11-36.509,90.023a34.19,34.19,0,0,0,24.236,10.044H737.27a34.192,34.192,0,0,0,24.237-10.044C784.586,1334.988,744.522,1288.51,725,1268.045Z" transform="translate(-415.688 210.117)" fill="#f79e31" stroke="#231f20" stroke-miterlimit="10" stroke-width="1"/><g transform="translate(1508.991 4653.152) rotate(180)"><path d="M1210.841,3116.267a2.325,2.325,0,0,0,3.276,0l15.031-15.056.006.008.035-.032a2.3,2.3,0,0,0-.011-3.251l-3.276-3.275a2.322,2.322,0,0,0-3.276,0l-10.138,10.147-10.148-10.147a2.322,2.322,0,0,0-3.276,0l-3.276,3.275a2.323,2.323,0,0,0,0,3.276Z" transform="translate(2423.229 6212.462) rotate(-180)" fill="#fff" stroke="#231f20" stroke-width="1"/><path d="M1225.9,3108.542a2.325,2.325,0,0,0-3.276,0l-10.138,10.149-10.148-10.149a2.325,2.325,0,0,0-3.276,0l-3.276,3.277a2.323,2.323,0,0,0,0,3.276l15.052,15.057a2.322,2.322,0,0,0,3.276,0l15.031-15.055.006.007.035-.033a2.3,2.3,0,0,0-.011-3.251Z" transform="translate(5.74 17.536)" fill="#fff" stroke="#231f20" stroke-width="1"/></g></g></svg>