<svg xmlns="http://www.w3.org/2000/svg" width="116.668" height="114.292" viewBox="0 0 116.668 114.292"><g transform="translate(-236.662 -1464.436)"><path d="M725,1268.045c-4.081-4.281-11.076-11.44-12.59-12.508v0a3.334,3.334,0,0,0-1.72-.715,3.528,3.528,0,0,0-1.717.667l-.036.025-.059.042h0c-1.559,1.12-8.505,8.23-12.568,12.491-19.524,20.465-59.422,67.11-36.509,90.023a34.19,34.19,0,0,0,24.236,10.044H737.27a34.192,34.192,0,0,0,24.237-10.044C784.586,1334.988,744.522,1288.51,725,1268.045Z" transform="translate(-415.688 210.117)" fill="#f79e31" stroke="#231f20" stroke-miterlimit="10" stroke-width="1"/><g transform="translate(-902.645 -1319.941)"><path d="M1187.529,2831.378a10.351,10.351,0,1,1-10.351,10.351A10.351,10.351,0,0,1,1187.529,2831.378Zm0,46a27.529,27.529,0,0,1-19.508-8.091,16,16,0,0,1,14.908-10.309h9.2a15.983,15.983,0,0,1,14.908,10.309A27.518,27.518,0,0,1,1187.529,2877.38Z" fill="#fff" stroke="#231f20" stroke-width="1"/><g transform="translate(1202.069 2832.374)"><circle cx="8.044" cy="8.044" r="8.044" transform="matrix(0.099, -0.995, 0.995, 0.099, 1.238, 16.009)" fill="#fff" stroke="#231f20" stroke-width="1"/><path d="M1214.8,2858.851a12.231,12.231,0,0,0-6.46,1.833,21.118,21.118,0,0,1,9.694,11.052l.545,1.408a21.379,21.379,0,0,0,14.956-6.284,12.422,12.422,0,0,0-11.585-8.01Z" transform="translate(-1208.341 -2836.647)" fill="#fff" stroke="#231f20" stroke-width="1"/></g><path d="M1187.529,2831.378a10.351,10.351,0,1,1-10.351,10.351A10.351,10.351,0,0,1,1187.529,2831.378Zm0,46a27.529,27.529,0,0,1-19.508-8.091,16,16,0,0,1,14.908-10.309h9.2a15.983,15.983,0,0,1,14.908,10.309A27.518,27.518,0,0,1,1187.529,2877.38Z" fill="#fff" stroke="#231f20" stroke-width="1"/></g></g></svg>