<svg xmlns="http://www.w3.org/2000/svg" width="41.692" height="56.912" viewBox="0 0 41.692 56.912">
  <g id="icons_Q2" data-name="icons Q2" transform="translate(0.534 0.524)">
    <path id="Path_5466" data-name="Path 5466" d="M48.657,22.336A20.328,20.328,0,1,0,16.894,39.107V55.242a2.541,2.541,0,0,0,3.939,2.16l7.5-5.844,7.5,5.844a2.541,2.541,0,0,0,3.939-2.16V39.107a20.328,20.328,0,0,0,8.894-16.771Zm-35.574,0A15.246,15.246,0,1,1,28.329,37.582,15.246,15.246,0,0,1,13.082,22.336Z" transform="translate(-7.998 -1.97)" fill="#f4f4f3" stroke="#231f20" stroke-width="1"/>
    <path id="Path_5467" data-name="Path 5467" d="M21.844,26.43l-5.082-4.955a2.668,2.668,0,0,1-.254-3.43,2.414,2.414,0,0,1,3.812-.254l3.3,3.3,8.385-8.385a2.541,2.541,0,0,1,3.557,3.557L25.4,26.43a2.414,2.414,0,0,1-3.557,0Z" transform="translate(-5.834 0.798)" fill="#f4f4f3" stroke="#231f20" stroke-width="1"/>
  </g>
</svg>
