<svg xmlns="http://www.w3.org/2000/svg" width="116.668" height="114.292" viewBox="0 0 116.668 114.292"><g transform="translate(-236.662 -1464.436)"><path d="M725,1268.045c-4.081-4.281-11.076-11.44-12.59-12.508v0a3.334,3.334,0,0,0-1.72-.715,3.528,3.528,0,0,0-1.717.667l-.036.025-.059.042h0c-1.559,1.12-8.505,8.23-12.568,12.491-19.524,20.465-59.422,67.11-36.509,90.023a34.19,34.19,0,0,0,24.236,10.044H737.27a34.192,34.192,0,0,0,24.237-10.044C784.586,1334.988,744.522,1288.51,725,1268.045Z" transform="translate(-415.688 210.117)" fill="#f79e31" stroke="#231f20" stroke-miterlimit="10" stroke-width="1"/><path d="M1218.539,2990.644l-19.17-7.99a4.813,4.813,0,0,0-3.685,0l-19.177,7.99a4.791,4.791,0,0,0-2.956,4.425c0,19.824,11.436,33.528,22.123,37.983a4.8,4.8,0,0,0,3.685,0c8.559-3.565,22.133-15.881,22.133-37.983A4.794,4.794,0,0,0,1218.539,2990.644Zm-6.256,10.969-16.543,16.551a1.442,1.442,0,0,1-2.035,0l-9.351-9.353a1.445,1.445,0,0,1,0-2.035l2.035-2.035a1.443,1.443,0,0,1,2.035,0l6.3,6.3,13.5-13.5a1.443,1.443,0,0,1,2.035,0l2.035,2.035a1.427,1.427,0,0,1,.007,2.019l-.022.021Z" transform="translate(-902.523 -1476.969)" fill="#fff" stroke="#231f20" stroke-width="1"/></g></svg>