<svg xmlns="http://www.w3.org/2000/svg" width="57.296" height="57.296" viewBox="0 0 57.296 57.296">
  <g id="icons_Q2" data-name="icons Q2" transform="translate(-3.5 -3.5)">
    <path id="Path_5461" data-name="Path 5461" d="M12.124,42.781l8.3-20.97a2.674,2.674,0,0,1,3.8-1.548l10.837,5.77a1.267,1.267,0,0,0,1.548-.141L49.42,10.833a2.815,2.815,0,0,1,4.785,1.97V46.581H14.8a2.956,2.956,0,0,1-2.674-3.8Z" transform="translate(3.259 2.456)" fill="#f4f4f3" stroke="#231f20" stroke-width="1"/>
    <path id="Path_5462" data-name="Path 5462" d="M57.481,54.666H9.63V6.815a2.815,2.815,0,1,0-5.63,0V60.3H57.481a2.815,2.815,0,1,0,0-5.63Z" fill="#f4f4f3" stroke="#231f20" stroke-width="1"/>
  </g>
</svg>
