<svg xmlns="http://www.w3.org/2000/svg" width="116.668" height="114.292" viewBox="0 0 116.668 114.292"><g transform="translate(-236.662 -1464.436)"><path d="M725,1268.045c-4.081-4.281-11.076-11.44-12.59-12.508v0a3.334,3.334,0,0,0-1.72-.715,3.528,3.528,0,0,0-1.717.667l-.036.025-.059.042h0c-1.559,1.12-8.505,8.23-12.568,12.491-19.524,20.465-59.422,67.11-36.509,90.023a34.19,34.19,0,0,0,24.236,10.044H737.27a34.192,34.192,0,0,0,24.237-10.044C784.586,1334.988,744.522,1288.51,725,1268.045Z" transform="translate(-415.688 210.117)" fill="#f79e31" stroke="#231f20" stroke-miterlimit="10" stroke-width="1"/><path d="M1008.025,2062.944a32.4,32.4,0,0,1-5.615-1.679l-1.042-.362a5,5,0,0,0-6.51,2.915,5.19,5.19,0,0,0,3.1,6.517l.99.353a52.256,52.256,0,0,0,5.826,1.767v2.615a5.1,5.1,0,1,0,10.208,0v-2.212c5.375-1.218,9.121-4.648,9.807-9.727,1.847-10.647-8.274-13.543-13.705-15.094l-1.126-.389c-5.6-1.587-5.275-2.272-5.127-3.146.246-1.439,3.256-2.141,6.853-1.572a25.489,25.489,0,0,1,4.179,1.153,5.105,5.105,0,0,0,3.337-9.65,39.911,39.911,0,0,0-4.217-1.218v-2.393a5.1,5.1,0,1,0-10.207,0v2.238c-5.37,1.214-9.135,4.622-10.2,9.7-1.638,10.526,8.638,13.546,12.508,14.694l1.383.4c6.734,1.927,6.625,2.529,6.453,3.54C1014.685,2062.837,1011.685,2063.54,1008.025,2062.944Z" transform="translate(-714.711 -522.736)" fill="#fff" stroke="#231f20" stroke-width="1"/></g></svg>