<svg xmlns="http://www.w3.org/2000/svg" width="47.395" height="58.969" viewBox="0 0 47.395 58.969">
  <g id="Group_1769" data-name="Group 1769" transform="translate(1240.086 3153.81) rotate(180)">
    <path id="Path_5439" data-name="Path 5439" d="M17.146,24.293a2.535,2.535,0,0,0,3.571,0L37.1,7.879l.007.009.038-.035a2.506,2.506,0,0,0-.013-3.545L33.565.737a2.532,2.532,0,0,0-3.571,0L18.942,11.8,7.879.737a2.531,2.531,0,0,0-3.571,0L.737,4.308a2.533,2.533,0,0,0,0,3.572Z" transform="translate(1231.249 3120.55) rotate(-180)" fill="#f4f4f3" stroke="#231f20" stroke-width="1"/>
    <path id="Path_5440" data-name="Path 5440" d="M33.565.736a2.535,2.535,0,0,0-3.571,0L18.942,11.8,7.879.736a2.534,2.534,0,0,0-3.571,0L.737,4.308a2.532,2.532,0,0,0,0,3.571l16.41,16.415a2.532,2.532,0,0,0,3.571,0L37.1,7.881l.007.007.038-.036a2.506,2.506,0,0,0-.013-3.544Z" transform="translate(1201.527 3128.099)" fill="#f4f4f3" stroke="#231f20" stroke-width="1"/>
  </g>
</svg>
