<svg xmlns="http://www.w3.org/2000/svg" width="116.668" height="114.292" viewBox="0 0 116.668 114.292"><g transform="translate(-236.662 -1464.436)"><path d="M725,1268.045c-4.081-4.281-11.076-11.44-12.59-12.508v0a3.334,3.334,0,0,0-1.72-.715,3.528,3.528,0,0,0-1.717.667l-.036.025-.059.042h0c-1.559,1.12-8.505,8.23-12.568,12.491-19.524,20.465-59.422,67.11-36.509,90.023a34.19,34.19,0,0,0,24.236,10.044H737.27a34.192,34.192,0,0,0,24.237-10.044C784.586,1334.988,744.522,1288.51,725,1268.045Z" transform="translate(-415.688 210.117)" fill="#f79e31" stroke="#231f20" stroke-miterlimit="10" stroke-width="1"/><path d="M763,2736.988a2.377,2.377,0,0,1-.66,2.575l-4.532,4.124a19.937,19.937,0,0,1,0,5.318l4.532,4.125a2.376,2.376,0,0,1,.66,2.575,26.649,26.649,0,0,1-1.644,3.59l-.492.848a27.582,27.582,0,0,1-2.314,3.275,2.394,2.394,0,0,1-2.564.712l-5.831-1.863a22.908,22.908,0,0,1-4.605,2.669l-1.309,5.977a2.511,2.511,0,0,1-1.9,1.863,27.356,27.356,0,0,1-4.543.366,26.766,26.766,0,0,1-4.354-.366,2.511,2.511,0,0,1-1.906-1.863l-1.308-5.977a20.6,20.6,0,0,1-4.606-2.669l-5.826,1.863a2.39,2.39,0,0,1-2.565-.712,27.489,27.489,0,0,1-2.314-3.275l-.49-.848a26.125,26.125,0,0,1-1.652-3.59,2.375,2.375,0,0,1,.665-2.575L717.97,2749a20.387,20.387,0,0,1,0-5.318l-4.528-4.124a2.371,2.371,0,0,1-.665-2.575,26.191,26.191,0,0,1,1.652-3.591l.489-.848a27.112,27.112,0,0,1,2.315-3.271,2.378,2.378,0,0,1,2.565-.712l5.826,1.858a20.149,20.149,0,0,1,4.606-2.666l1.308-5.977a2.377,2.377,0,0,1,1.906-1.866,27.13,27.13,0,0,1,8.9,0,2.377,2.377,0,0,1,1.9,1.866l1.309,5.977a22.347,22.347,0,0,1,4.605,2.666l5.831-1.858a2.381,2.381,0,0,1,2.564.712,27.107,27.107,0,0,1,2.314,3.271l.492.848a26.627,26.627,0,0,1,1.644,3.591Zm-25.112,17.731a8.421,8.421,0,1,0-8.374-8.468A8.392,8.392,0,0,0,737.893,2754.719Z" transform="translate(-442.895 -1216.137)" fill="#fff" stroke="#231f20" stroke-width="1"/></g></svg>