<svg xmlns="http://www.w3.org/2000/svg" width="578.791" height="578.791" viewBox="0 0 578.791 578.791">
  <g id="Group_15620" data-name="Group 15620" transform="translate(-2166.741 -2224.256)">
    <g id="Group_15616" data-name="Group 15616" transform="translate(2395.268 2224.756)">
      <line id="Line_49" data-name="Line 49" y2="464.898" transform="translate(60.869 56.446)" fill="none" stroke="#231f20" stroke-linecap="round" stroke-linejoin="round" stroke-width="1" stroke-dasharray="12"/>
      <circle id="Ellipse_79" data-name="Ellipse 79" cx="60.869" cy="60.869" r="60.869" fill="#f79e31" stroke="#231f20" stroke-width="1"/>
      <circle id="Ellipse_80" data-name="Ellipse 80" cx="60.869" cy="60.869" r="60.869" transform="translate(0 456.053)" fill="#f79e31" stroke="#231f20" stroke-width="1"/>
    </g>
    <g id="Group_15617" data-name="Group 15617" transform="translate(2234.028 2291.544)">
      <line id="Line_50" data-name="Line 50" x1="328.732" y2="328.732" transform="translate(57.742 57.742)" fill="none" stroke="#231f20" stroke-linecap="round" stroke-linejoin="round" stroke-width="1" stroke-dasharray="12"/>
      <circle id="Ellipse_81" data-name="Ellipse 81" cx="60.869" cy="60.869" r="60.869" transform="translate(322.478)" fill="#f79e31" stroke="#231f20" stroke-width="1"/>
      <circle id="Ellipse_82" data-name="Ellipse 82" cx="60.869" cy="60.869" r="60.869" transform="translate(0 322.478)" fill="#f79e31" stroke="#231f20" stroke-width="1"/>
    </g>
    <g id="Group_15618" data-name="Group 15618" transform="translate(2167.241 2452.783)">
      <line id="Line_51" data-name="Line 51" x1="464.898" transform="translate(56.446 60.869)" fill="none" stroke="#231f20" stroke-linecap="round" stroke-linejoin="round" stroke-width="1" stroke-dasharray="12"/>
      <circle id="Ellipse_83" data-name="Ellipse 83" cx="60.869" cy="60.869" r="60.869" transform="translate(456.053 0)" fill="#f79e31" stroke="#231f20" stroke-width="1"/>
      <circle id="Ellipse_84" data-name="Ellipse 84" cx="60.869" cy="60.869" r="60.869" transform="translate(0 0)" fill="#f79e31" stroke="#231f20" stroke-width="1"/>
    </g>
    <g id="Group_15619" data-name="Group 15619" transform="translate(2234.028 2291.544)">
      <line id="Line_52" data-name="Line 52" x1="328.732" y1="328.732" transform="translate(57.742 57.742)" fill="none" stroke="#231f20" stroke-linecap="round" stroke-linejoin="round" stroke-width="1" stroke-dasharray="12"/>
      <circle id="Ellipse_85" data-name="Ellipse 85" cx="60.869" cy="60.869" r="60.869" transform="translate(322.478 322.478)" fill="#f79e31" stroke="#231f20" stroke-width="1"/>
      <circle id="Ellipse_86" data-name="Ellipse 86" cx="60.869" cy="60.869" r="60.869" fill="#f79e31" stroke="#231f20" stroke-width="1"/>
    </g>
    <circle id="Ellipse_87" data-name="Ellipse 87" cx="97.686" cy="97.686" r="97.686" transform="translate(2358.45 2415.966)" fill="#ef662f" stroke="#231f20" stroke-width="1"/>
    <circle id="Ellipse_88" data-name="Ellipse 88" cx="60.869" cy="60.869" r="60.869" transform="translate(2395.258 2224.756)" fill="#f79e31" stroke="#231f20" stroke-width="1"/>
    <circle id="Ellipse_89" data-name="Ellipse 89" cx="60.869" cy="60.869" r="60.869" transform="translate(2395.258 2680.81)" fill="#f79e31" stroke="#231f20" stroke-width="1"/>
    <text id="Team_members" data-name="Team 
members" transform="translate(2454.808 2278.262)" fill="#231f20" font-size="13" font-family="Poppins-Medium, Poppins" font-weight="500" style="isolation: isolate"><tspan x="-20.527" y="0">Team </tspan><tspan x="-31.902" y="16">members</tspan></text>
    <text id="Application" transform="translate(2454.647 2745.14)" fill="#231f20" font-size="13" font-family="Poppins-Medium, Poppins" font-weight="500" style="isolation: isolate"><tspan x="-37.583" y="0">Application</tspan></text>
    <text id="Physical_environmental" data-name="Physical &amp;
environmental" transform="translate(2681.01 2506.585)" fill="#231f20" font-size="13" font-family="Poppins-Medium, Poppins" font-weight="500" style="isolation: isolate"><tspan x="-33.715" y="0">Physical &amp;</tspan><tspan x="-48.074" y="16">environmental</tspan></text>
    <text id="Posture" transform="translate(2226.708 2515.331)" fill="#231f20" font-size="13" font-family="Poppins-Medium, Poppins" font-weight="500" style="isolation: isolate"><tspan x="-24.628" y="0">Posture</tspan></text>
    <g id="icons_Q2" data-name="icons Q2" transform="translate(2421.015 2466.766)">
      <path id="Path_7389" data-name="Path 7389" d="M2521.942,2530.969h-7.8v-9.757a21.463,21.463,0,0,0-21.464-21.463h-3.9a21.463,21.463,0,0,0-21.463,21.463v9.757h-7.8a3.9,3.9,0,0,0-3.9,3.9V2581.7a3.9,3.9,0,0,0,3.9,3.9h62.437a3.9,3.9,0,0,0,3.9-3.9v-46.827A3.9,3.9,0,0,0,2521.942,2530.969Zm-27.511,30.047v4.878a3.9,3.9,0,0,1-7.8,0v-4.878a7.805,7.805,0,1,1,7.8,0Zm11.9-30.047h-31.218v-9.757a13.658,13.658,0,0,1,13.658-13.658h3.9a13.658,13.658,0,0,1,13.658,13.658Z" transform="translate(-2455.603 -2499.75)" fill="#fff" stroke="#231f20" stroke-width="1"/>
    </g>
    <text id="Network" transform="translate(2615.835 2355.103)" fill="#231f20" font-size="13" font-family="Poppins-Medium, Poppins" font-weight="500" style="isolation: isolate"><tspan x="-26.722" y="0">Network</tspan></text>
    <text id="Data" transform="translate(2294.176 2355.103)" fill="#231f20" font-size="13" font-family="Poppins-Medium, Poppins" font-weight="500" style="isolation: isolate"><tspan x="-15.84" y="0">Data</tspan></text>
    <text id="Host" transform="translate(2617.035 2679.849)" fill="#231f20" font-size="13" font-family="Poppins-Medium, Poppins" font-weight="500" style="isolation: isolate"><tspan x="-14.618" y="0">Host</tspan></text>
    <text id="End_devices" data-name="End 
devices" transform="translate(2292.615 2668.463)" fill="#231f20" font-size="13" font-family="Poppins-Medium, Poppins" font-weight="500" style="isolation: isolate"><tspan x="-13.721" y="0">End </tspan><tspan x="-25.259" y="16">devices</tspan></text>
  </g>
</svg>
