<svg xmlns="http://www.w3.org/2000/svg" width="60.131" height="60.131" viewBox="0 0 60.131 60.131">
  <path id="send-backward" d="M51.763,17.766H23.134a5.368,5.368,0,0,0-5.368,5.368V51.763a5.368,5.368,0,0,0,5.368,5.368H51.763a5.368,5.368,0,0,0,5.368-5.368h0V23.134A5.368,5.368,0,0,0,51.763,17.766ZM49.974,49.974H24.923V24.923h25.05ZM37.365,12.314V3.368A5.368,5.368,0,0,0,32-2H3.368A5.368,5.368,0,0,0-2,3.368V32a5.368,5.368,0,0,0,5.368,5.368h8.946v-16.1a8.957,8.957,0,0,1,8.946-8.946Z" transform="translate(2.5 2.5)" fill="#f4f4f3" stroke="#231f20" stroke-width="1"/>
</svg>
