<svg xmlns="http://www.w3.org/2000/svg" width="62.333" height="62.333" viewBox="0 0 62.333 62.333">
  <g id="Layer_2" data-name="Layer 2" transform="translate(-2.167 -2.167)">
    <g id="icons_Q2" data-name="icons Q2" transform="translate(2.667 2.667)">
      <path id="Path_5464" data-name="Path 5464" d="M49.394,28.485H60.545A2.788,2.788,0,0,0,63.333,25.7V14.545a2.788,2.788,0,0,0-2.788-2.788H49.394a2.788,2.788,0,0,0-2.788,2.788v2.788H35.455v4.6a9.479,9.479,0,0,0-5.576,0V7.576H18.727V4.788A2.788,2.788,0,0,0,15.939,2H4.788A2.788,2.788,0,0,0,2,4.788V15.939a2.788,2.788,0,0,0,2.788,2.788H15.939a2.788,2.788,0,0,0,2.788-2.788V13.152H24.3V25.279a11.152,11.152,0,0,0-2.37,4.6H18.727V27.091A2.788,2.788,0,0,0,15.939,24.3H4.788A2.788,2.788,0,0,0,2,27.091V38.242A2.788,2.788,0,0,0,4.788,41.03H15.939a2.788,2.788,0,0,0,2.788-2.788V35.455h3.206a11.151,11.151,0,0,0,2.37,4.6V52.182H18.727V49.394a2.788,2.788,0,0,0-2.788-2.788H4.788A2.788,2.788,0,0,0,2,49.394V60.545a2.788,2.788,0,0,0,2.788,2.788H15.939a2.788,2.788,0,0,0,2.788-2.788V57.758H29.879V43.4a9.479,9.479,0,0,0,5.576,0V48H46.606v2.788a2.788,2.788,0,0,0,2.788,2.788H60.545a2.788,2.788,0,0,0,2.788-2.788V39.636a2.788,2.788,0,0,0-2.788-2.788H49.394a2.788,2.788,0,0,0-2.788,2.788v2.788H41.03v-2.37a11.152,11.152,0,0,0,0-14.776v-2.37h5.576V25.7A2.788,2.788,0,0,0,49.394,28.485Z" transform="translate(-2 -2)" fill="#f4f4f3" stroke="#231f20" stroke-width="1"/>
    </g>
  </g>
</svg>
