<svg xmlns="http://www.w3.org/2000/svg" width="49.768" height="66.025" viewBox="0 0 49.768 66.025">
  <path id="Path_5449" data-name="Path 5449" d="M560.666,2826.48h-6.843a12.12,12.12,0,0,0-22.888,0H524.09a6.1,6.1,0,0,0-6.1,6.1v44.705a6.1,6.1,0,0,0,6.1,6.1h36.576a6.1,6.1,0,0,0,6.1-6.1v-44.705A6.1,6.1,0,0,0,560.666,2826.48Zm-18.288,0a4.064,4.064,0,1,1-4.064,4.064A4.065,4.065,0,0,1,542.378,2826.48Zm-12.192,41.657a3.048,3.048,0,1,1,3.048-3.048A3.048,3.048,0,0,1,530.186,2868.137Zm.88-12.548a2.018,2.018,0,0,1-.36-.284l-4.487-4.393a2.032,2.032,0,0,1,2.873-2.874l3.1,3.031,7.032-7.032a2.032,2.032,0,0,1,2.874,2.873l-8.442,8.442A2.038,2.038,0,0,1,531.066,2855.589Zm25.536,11.532H540.346a2.032,2.032,0,0,1,0-4.064H556.6a2.032,2.032,0,0,1,0,4.064Zm0-12.192H545.553a2.032,2.032,0,0,1,0-4.064H556.6a2.032,2.032,0,0,1,0,4.064Z" transform="translate(-517.494 -2817.852)" fill="#f4f4f3" stroke="#231f20" stroke-width="1"/>
</svg>
