<svg id="Wells_Fargo-Logo.wine" xmlns="http://www.w3.org/2000/svg" width="71.739" height="71.739" viewBox="0 0 71.739 71.739">
  <path id="Path_3815" data-name="Path 3815" d="M0,71.739H71.739V0H0Z" fill="#d21c23"/>
  <path id="Path_3816" data-name="Path 3816" d="M57.785,30.342c0-2.883-1.189-4.56-3.388-4.56s-3.388,1.677-3.388,4.56c0,2.9,1.173,4.561,3.388,4.561s3.388-1.662,3.388-4.561m2.671,0a6.059,6.059,0,0,1-12.118,0,6.059,6.059,0,0,1,12.118,0m-18.308.522a1.6,1.6,0,0,0,.179.8h1.938v2.883a4.98,4.98,0,0,1-1.921.375c-2.345,0-3.567-1.677-3.567-4.577S40,25.765,42.214,25.765a2.825,2.825,0,0,1,2.849,2l.179.456h1.174V25.31A9.541,9.541,0,0,0,42.1,24.3a5.685,5.685,0,0,0-5.994,6.059A5.618,5.618,0,0,0,42.1,36.385a10.273,10.273,0,0,0,4.56-1.206V30.1H42.328a1.52,1.52,0,0,0-.179.766m-9.9-2.964c0-1.189-.733-1.824-2.2-1.824H28.125v3.664h1.921c1.45,0,2.2-.667,2.2-1.84M19.493,31.221l-1.6-4.315-1.6,4.315ZM35.4,34.772a1.583,1.583,0,0,1,0,1.336,9.751,9.751,0,0,1-1.269.081,2.175,2.175,0,0,1-2.524-2.166l-.066-.569c-.2-1.645-.732-2.28-2.524-2.28h-.9v3.468h1.547v1.417H19.427V34.642h1.336l-.749-2.035H15.78l-.749,2.035H16.4v1.417H12.082V34.642h1.14l3.99-9.984h2.167l4.072,9.984H25.7V26.075H24.314V24.658h6.548c2.328,0,3.843,1.157,3.843,3.013a2.925,2.925,0,0,1-2.98,2.883V30.6a2.2,2.2,0,0,1,2.231,2.231l.066.6c.1.945.293,1.368,1.042,1.368a1.965,1.965,0,0,0,.341-.033m-24.821-8.7c1.091,0,1.465.472,1.824,1.841l.114.439h1.173v-3.7H3.873v1.417H5.258v8.566H3.873v1.417h5.44V34.642H7.684V31.32h3.356a1.7,1.7,0,0,0,.179-.815,1.607,1.607,0,0,0-.179-.781H7.684V26.075ZM60.065,15.6c0-1.791-1.091-3.029-3.144-3.5l-2.068-.473c-1.2-.276-1.709-.749-1.709-1.547,0-.962.766-1.563,2.264-1.563s2.378.537,2.72,1.807l.146.554h1.173V8.061a9.129,9.129,0,0,0-4.138-1.009c-2.785,0-4.576,1.336-4.576,3.486,0,1.66,1.042,2.883,3.044,3.322l2.07.457c1.318.293,1.807.813,1.807,1.677,0,1.058-.8,1.645-2.395,1.645-1.808,0-2.736-.716-3.143-2.085l-.211-.7H50.734v3.193a10.144,10.144,0,0,0,4.8,1.058c2.736,0,4.528-1.368,4.528-3.5m-10.425-.716H48.468l-.13.571c-.326,1.449-.781,1.905-1.857,1.905H44.217V8.794h1.548V7.378H40.407V8.794h1.384v8.567H40.407v1.416H49.64Zm-10.261,0H38.207l-.13.571c-.325,1.449-.781,1.905-1.857,1.905H33.956V8.794H35.5V7.378H30.145V8.794H31.53v8.567H30.145v1.416h9.235ZM6.235,18.777,3.369,8.794h-1.3V7.378h5.31V8.794H5.844L7.75,15.667l2.28-8.29h2.345l2.33,8.305,1.872-6.889h-1.6V7.378H28.793v3.7H27.621l-.115-.44c-.358-1.367-.732-1.84-1.824-1.84h-2.7v3.437h3.274a1.623,1.623,0,0,1,.178.781,1.709,1.709,0,0,1-.178.815H22.978v3.535H25.8c1.058,0,1.53-.457,1.856-1.906l.131-.571h1.173v3.893H19.167V17.361h1.385V8.794H18.3l-2.849,9.984H13.189L10.877,10.5,8.5,18.777Z" transform="translate(4.041 13.796)" fill="#fff"/>
</svg>
