<svg xmlns="http://www.w3.org/2000/svg" width="404.481" height="402.981" viewBox="0 0 404.481 402.981"><g transform="translate(-1014 -273.074)"><path d="M783.38,534.957c-15.452-16.552-42.846-45.163-44.979-45.215l5.934,287.073L874.267,711.39l4.575,9.078L744.7,794.156,746.3,871.9c.238,11.571.2,20.823.2,20.823h79.835a118.422,118.422,0,0,0,84.826-35.91C991.938,774.3,851.717,608.13,783.38,534.957Z" transform="translate(482.952 -216.668)" fill="#8bb547"/><path d="M875.936,837.572,742.685,764.38l4.575-9.074,129.034,64.967,3-145.423L814.6,639.31l4.575-9.078,60.414,30.421,3.533-170.911c-2.134.052-29.525,28.663-44.978,45.215C769.811,608.13,630.174,774.9,710.365,856.812a118.427,118.427,0,0,0,84.829,35.91h79.831s-.04-9.253.2-20.823Z" transform="translate(327.771 -216.668)" fill="#8bb547"/></g></svg>