<?xml version="1.0" encoding="utf-8"?>
<!-- Generator: Adobe Illustrator 25.2.0, SVG Export Plug-In . SVG Version: 6.00 Build 0)  -->
<svg version="1.1" id="Слой_1" xmlns="http://www.w3.org/2000/svg" xmlns:xlink="http://www.w3.org/1999/xlink" x="0px" y="0px"
	 viewBox="0 0 510.5 529.7" style="enable-background:new 0 0 510.5 529.7;" xml:space="preserve">
<style type="text/css">
	.st0{fill:#F4F4F3;}
</style>
<path class="st0" d="M411.5,76.1c-11.9-23.8-32.6-63.8-37.7-70.4l0,0c0,0-2.9-4.2-6.5-5.3c-3-0.9-6.9,0.2-8.3,0.6L358.8,1l-0.3,0.1
	l0,0c-8.2,2.8-47.4,24.2-70.5,37.2C177,100.7-56.1,249,12.4,377.8c19.2,36.2,52,63.2,91.1,75.1L332.6,523
	c39.1,12,81.4,7.9,117.5-11.3c56.8-30.2,67.4-95.7,56.5-169.4C492.8,247.9,443.6,140.1,411.5,76.1z"/>
</svg>
