<?xml version="1.0" encoding="utf-8"?>
<!-- Generator: Adobe Illustrator 25.2.0, SVG Export Plug-In . SVG Version: 6.00 Build 0)  -->
<svg version="1.1" id="Слой_1" xmlns="http://www.w3.org/2000/svg" xmlns:xlink="http://www.w3.org/1999/xlink" x="0px" y="0px"
	 viewBox="0 0 488.8 506.4" style="enable-background:new 0 0 488.8 506.4;" xml:space="preserve">
<style type="text/css">
	.st0{fill:#F4F4F3;}
</style>
<path class="st0" d="M102,6.8C75.5,3.8,30.7-0.6,22.4,0.1l0,0c0,0-5.1,0.1-8,2.5c-2.4,2-3.6,5.9-4,7.3L10.3,10l-0.1,0.3l0,0
	c-2.1,8.4-5.5,53-7.2,79.4C-5,216.9-7.6,493.1,137.7,505.8c40.8,3.6,81.3-9.2,112.6-35.5l183.5-154.1c31.4-26.3,51-64,54.5-104.8
	c5.6-64.1-43.6-108.6-111.3-139.6C290.3,32.1,173.1,14.7,102,6.8z"/>
</svg>
