<svg xmlns="http://www.w3.org/2000/svg" width="1754.533" height="2671.231" viewBox="0 0 1754.533 2671.231">
  <path id="Path_4631" data-name="Path 4631" d="M-8299.73-11803.319c-52.709-34.322-132.385-30.646-153.224,51.483s137.65,325.048-38,270.9-265.49-332.282-375.106-287.379-244.653,260.124-179.939,315.593,293.935,57.337,323.821-14.646c26.9-64.784-85.629-256.689-189.236-301.144-5.941-2.549-132.792-124.589-463.019-158.068s-256.678-801.279,13.391-821.367,160.7,285.692,0,232.125-361.58-245.517-227.66-549.065,2.521-742.742-142.559-693.639-114.953,184.284,14.125,220,249.61-38.076,159.355-220-495.174-321.911-495.174-321.911" transform="translate(10053.445 14081.854)" fill="none" stroke="#f4f4f3" stroke-width="3"/>
</svg>
