<?xml version="1.0" encoding="utf-8"?>
<!-- Generator: Adobe Illustrator 25.2.0, SVG Export Plug-In . SVG Version: 6.00 Build 0)  -->
<svg version="1.1" id="Слой_1" xmlns="http://www.w3.org/2000/svg" xmlns:xlink="http://www.w3.org/1999/xlink" x="0px" y="0px"
	 viewBox="0 0 588.9 559.7" style="enable-background:new 0 0 588.9 559.7;" xml:space="preserve">
<style type="text/css">
	.st0{fill:#F4F4F3;}
</style>
<path class="st0" d="M572.8,134.2c5.4-29.8,14-80.2,13.9-89.7l0,0c0,0,0.3-5.8-2.2-9.3c-2.1-2.8-6.4-4.6-7.9-5.1l-0.2-0.1
	C576.1,30,576,30,576,30l0,0c-9.3-3.1-59.6-10.4-89.4-14.4C343.2-3.7,30.4-28.5,4.5,135.2c-7.3,45.9,3.9,92.8,31.3,130.4l160,220.2
	c27.3,37.6,68.5,62.8,114.4,70C475.1,581.9,546.8,276.5,572.8,134.2z"/>
</svg>
