<svg xmlns="http://www.w3.org/2000/svg" width="2338.727" height="263.994" viewBox="0 0 2338.727 263.994">
  <path id="Path_3872" data-name="Path 3872" d="M-139.086,136.159c57.892,6.094,144.415,26.975,218.467,99.5s148.869,26.72,155.74-21.376-33.591-96.7-90.085-78.125S77.855,218.1,126.714,256.273s207.041,79.3,294.461,27.256,239.941-84.514,306.36-52.449,48.1,132.837-18.323,135.891S604.623,305.133,639.74,257.8s131.783-16.458,351.942,52.677,345.835-25.5,361.867-86.037-37.408-89.552-75.58-88.788-76.343,37.408-67.182,88.788S1295.46,292.2,1419.2,310.477s230.513,33.724,299.265-38.935,148.869-57.258,190.094-28.247,31.3,102.3-26.72,120.622-109.934-49.623-87.031-102.3S1900.2,170.4,1995.6,186.037s202.89-80.333,202.89-80.333" transform="translate(139.243 -104.585)" fill="none" stroke="#f4f4f3" stroke-width="3"/>
</svg>
