<svg xmlns="http://www.w3.org/2000/svg" width="683.573" height="705.979" viewBox="0 0 683.573 705.979">
  <g id="Group_1486" data-name="Group 1486" transform="translate(-984.05 -171.715)">
    <path id="Path_3901" data-name="Path 3901" d="M.128,229.278C-4.847,207.027,136.857-23.063,227.2,1.891c41.38,11.424,73.228,74.878,91.293,142.139,20.875,77.692,20.539,161.076-32.793,177.079C187.305,350.635,5.1,251.532.128,229.278Z" transform="translate(1667.623 480.479) rotate(161)" fill="#ef662f"/>
    <path id="Path_4619" data-name="Path 4619" d="M.177,317.99c-6.9-30.86,189.632-349.977,314.933-315.368,57.39,15.845,101.561,103.85,126.617,197.136,28.952,107.752,28.486,223.4-45.481,245.594C259.778,486.3,7.077,348.854.177,317.99Z" transform="translate(984.049 463.944) rotate(-24)" fill="#f79e31"/>
  </g>
</svg>
