<svg xmlns="http://www.w3.org/2000/svg" width="1542.367" height="4255.423" viewBox="0 0 1542.367 4255.423">
  <path id="Path_3892" data-name="Path 3892" d="M503.54,84.361S488.277,247.895,608.2,339.473,761.06,491.508,686.229,574.08s-310.51,76.66-283.79-46.254,193.584-125.8,254.223-45.807,178.666,362.1,222.533,560.795,263.027,426.089,438.315,440.8,154.373-243.67,8.58-199.8-74.773,232.9,131.158,457.218S204.494,2326.954,378.557,2486.307s183.864,231.035,134.836,317.479,89.5,123.094,285.609,112.772,282.963-36.971,286.834-82.128-166.27-82.318-346.9-53.935-278.072,93.547-313.8,225.545,172.836,297.866,172.836,464.573S439.605,3734.65,250.834,3652.522,90.5,3469.388,159.141,3373.776s343.221-220.643,453.541,56.386-83.131,743.969-240.536,857.507-435.228,0-435.228,0" transform="translate(63.649 -84.222)" fill="none" stroke="#f4f4f3" stroke-width="3"/>
</svg>
