<svg xmlns="http://www.w3.org/2000/svg" width="2877.689" height="2891.986" viewBox="0 0 2877.689 2891.986">
  <path id="Path_4610" data-name="Path 4610" d="M4941.387,992.956c-75-78.652-203.484-210.178-231.312-229.794l-.029-.043s-16.238-13.15-31.576-13.15c-12.607,0-26.811,9.008-31.53,12.255l-.662.461c-.649.463-1.084.78-1.084.78h0c-28.641,20.568-156.266,151.214-230.908,229.49-358.721,376-1091.722,1232.979-670.76,1653.927,113.812,113.829,271.421,184.529,445.281,184.529h978.056c173.859,0,331.455-70.7,445.281-184.529C6036.168,2222.861,5300.087,1368.956,4941.387,992.956Z" transform="translate(-2505.651 4533.924) rotate(-59)" fill="#f4f4f3"/>
</svg>
