<svg xmlns="http://www.w3.org/2000/svg" width="25" height="25" viewBox="0 0 25 25">
  <g id="Layer_2" data-name="Layer 2" transform="translate(0 0.203)">
    <g id="invisible_box" data-name="invisible box">
      <rect id="Rectangle_966" data-name="Rectangle 966" width="25" height="25" transform="translate(0 -0.203)" fill="none"/>
      <rect id="Rectangle_967" data-name="Rectangle 967" width="25" height="25" transform="translate(0 -0.203)" fill="none"/>
    </g>
    <g id="icons_Q2" data-name="icons Q2" transform="translate(2.066 2.117)">
      <path id="Path_4620" data-name="Path 4620" d="M23.114,4.1H5.55A1.5,1.5,0,0,0,4,5.6V23.213a1.5,1.5,0,0,0,1.55,1.5H23.114a1.5,1.5,0,0,0,1.5-1.5V5.6A1.5,1.5,0,0,0,23.114,4.1ZM10.148,21.664h-3.1V11.848h3.1ZM8.6,10.505A1.808,1.808,0,0,1,6.841,8.7a1.756,1.756,0,1,1,3.513,0A1.808,1.808,0,0,1,8.6,10.505ZM21.564,21.664H18.517v-4.8c0-1.137,0-2.583-1.6-2.583s-1.808,1.24-1.808,2.531v4.856H12.059V11.848h2.893v1.343H15a3.2,3.2,0,0,1,2.893-1.6c3.1,0,3.668,2.015,3.668,4.7Z" transform="translate(-4 -4.098)" fill="#ef662f"/>
    </g>
  </g>
</svg>
