<svg xmlns="http://www.w3.org/2000/svg" width="1840.758" height="163.006" viewBox="0 0 1840.758 163.006">
  <path id="Path_4625" data-name="Path 4625" d="M2192.9,207.935s-247.726,6.312-339.157-48.391-204.8-32.238-227.707,20.438,32.75,116.138,90.771,97.815,71.883-89.243,30.657-118.254-117-38.394-185.749,34.264-75.646,57.576-142.7,83.989-210.85-1.629-220.012-53.008,29.34-84.319,67.512-85.083,77.222,33.293,67.974,74.448-26.357,84.158-209.471,26.82-305.093-112.689-350.3-66.252-3.78,113.512,62.638,110.458S928.932,180.066,862.514,148s-218.939.408-306.36,52.449-203.836,63.123-203.836,63.123" transform="translate(-352.176 -126.399)" fill="none" stroke="#f4f4f3" stroke-width="3"/>
</svg>
