<svg xmlns="http://www.w3.org/2000/svg" width="2763.117" height="271.08" viewBox="0 0 2763.117 271.08"><path d="M-139.086,136.159c52.841,6.094,131.814,26.975,199.405,99.5s135.88,26.72,142.151-21.376-30.66-96.7-82.225-78.125S58.926,218.1,103.523,256.273s188.976,79.3,268.768,27.256S494.9,166.281,555.522,198.346s35.785,126.527-18.706,128.31-94.342-56.135-51.238-106.925,114.805,23.142,226.136,63.8,256.966,3.871,271.6-56.67-22.089-72.937-56.93-72.174-71.242,39.5-43.1,83.266,116.5,138.616,206.736,76.8,207.229-152.044,276.359-112.839,48.078,108.773-4.88,127.1-108.981-63.831-55.3-111.057,342.4,19.6,417.219,45.442,95.968-28.513,91.9-67.719-53.678-81.084-103.288-25.84,34.313,136.007,69.284,159.173,131.752,91.775,237.479,65.045,217.961-52.57,200.068-123.853-91.9-71.283-111.42-26.731-.152,81.406,29.127,97.122,84.733,64.153,275.042,0S2623.058,289.8,2623.058,289.8" transform="translate(139.258 -130.584)" fill="none" stroke="#f4f4f3" stroke-width="3"/></svg>