<svg xmlns="http://www.w3.org/2000/svg" width="1228.946" height="1213.782" viewBox="0 0 1228.946 1213.782">
  <path id="Path_4629" data-name="Path 4629" d="M4258.451,867.673c-36.331-38.1-98.57-101.811-112.05-111.313l-.014-.021s-7.866-6.37-15.3-6.37c-6.105,0-12.985,4.364-15.271,5.936l-.321.223c-.314.225-.525.378-.525.378h0c-13.873,9.963-75.7,73.249-111.852,111.166-173.768,182.137-528.837,597.262-324.921,801.172a304.288,304.288,0,0,0,215.7,89.387h473.775a304.3,304.3,0,0,0,215.7-89.387c89.965-89.964,72.122-219.878,8.972-352.953C4511.491,1145.513,4356.1,970.034,4258.451,867.673Z" transform="translate(-3692.831 314.222) rotate(-13)" fill="#f4f4f3"/>
</svg>
