<svg xmlns="http://www.w3.org/2000/svg" width="528.587" height="528.587" viewBox="0 0 528.587 528.587">
  <g id="Group_15610" data-name="Group 15610" transform="translate(-414.426 -1727.671)">
    <line id="Line_47" data-name="Line 47" y2="418.688" transform="translate(678.946 1782.62)" fill="none" stroke="#231f20" stroke-linecap="round" stroke-linejoin="round" stroke-width="1" stroke-dasharray="12"/>
    <line id="Line_48" data-name="Line 48" x1="418.688" transform="translate(467.691 1991.964)" fill="none" stroke="#231f20" stroke-linecap="round" stroke-linejoin="round" stroke-width="1" stroke-dasharray="12"/>
    <circle id="Ellipse_73" data-name="Ellipse 73" cx="205.555" cy="205.555" r="205.555" transform="translate(473.358 1786.409)" fill="none" stroke="#231f20" stroke-linecap="round" stroke-linejoin="round" stroke-width="1" stroke-dasharray="12"/>
    <circle id="Ellipse_74" data-name="Ellipse 74" cx="58.432" cy="58.432" r="58.432" transform="translate(414.926 1933.532)" fill="#f79e31" stroke="#231f20" stroke-width="1"/>
    <circle id="Ellipse_75" data-name="Ellipse 75" cx="58.432" cy="58.432" r="58.432" transform="translate(825.649 1933.532)" fill="#f79e31" stroke="#231f20" stroke-width="1"/>
    <circle id="Ellipse_76" data-name="Ellipse 76" cx="87.976" cy="87.976" r="87.976" transform="translate(590.937 1903.988)" fill="#ef662f" stroke="#231f20" stroke-width="1"/>
    <circle id="Ellipse_77" data-name="Ellipse 77" cx="58.432" cy="58.432" r="58.432" transform="translate(620.519 2138.894)" fill="#f79e31" stroke="#231f20" stroke-width="1"/>
    <circle id="Ellipse_78" data-name="Ellipse 78" cx="58.432" cy="58.432" r="58.432" transform="translate(620.481 1728.171)" fill="#f79e31" stroke="#231f20" stroke-width="1"/>
    <path id="Path_7385" data-name="Path 7385" d="M729.24,2307.309h22.766l-7.987-15.272a2.35,2.35,0,1,1,4.17-2.167l9.112,17.439h8.378a3.186,3.186,0,0,1,3.132,3.131,3.074,3.074,0,0,1-3.132,3.132l-5.08,20.4a6.338,6.338,0,0,1-6.078,4.747H726.636a6.241,6.241,0,0,1-5.992-4.747l-5.078-20.4a3.076,3.076,0,0,1-3.132-3.132,3.188,3.188,0,0,1,3.132-3.131h8.378l9.112-17.439a2.35,2.35,0,1,1,4.17,2.167Zm1.9,10.962a1.563,1.563,0,0,0-1.566-1.566,1.692,1.692,0,0,0-1.566,1.566v9.4a1.569,1.569,0,0,0,1.566,1.566,1.47,1.47,0,0,0,1.566-1.566Zm7.83,0v9.4a1.569,1.569,0,0,0,1.566,1.566,1.54,1.54,0,0,0,1.654-1.566v-9.4a1.643,1.643,0,0,0-1.654-1.566A1.692,1.692,0,0,0,738.969,2318.271Zm14.182,0a1.566,1.566,0,0,0-3.132,0v9.4a1.566,1.566,0,1,0,3.132,0Z" transform="translate(-61.709 -116.245)" fill="#fff" stroke="#231f20" stroke-width="1"/>
    <path id="Path_7386" data-name="Path 7386" d="M1029.9,2058.633a3.9,3.9,0,0,0-5.474-.829l-11.717,8.63h-11.8a1.5,1.5,0,0,1-1.477-1.565,1.562,1.562,0,0,1,1.477-1.566h7.659a3.329,3.329,0,0,0,3.266-2.605,3.138,3.138,0,0,0-3.095-3.658H993a11.7,11.7,0,0,0-7.255,2.57l-4.551,3.693-5.42-.088a1.651,1.651,0,0,0-1.478,1.654v9.394a1.559,1.559,0,0,0,1.478,1.568h33.876a10.26,10.26,0,0,0,6.039-1.984l13.223-9.741A3.8,3.8,0,0,0,1029.9,2058.633Zm-28.277-15.788a14.882,14.882,0,0,1-2.584-.773l-.479-.167a2.3,2.3,0,0,0-3,1.341,2.387,2.387,0,0,0,1.428,3l.456.163a24.13,24.13,0,0,0,2.68.813v1.2a2.348,2.348,0,1,0,4.7,0v-1.018a5.359,5.359,0,0,0,4.512-4.475c.85-4.9-3.807-6.231-6.306-6.945l-.518-.179c-2.574-.73-2.427-1.045-2.359-1.447.113-.663,1.5-.985,3.153-.724a11.725,11.725,0,0,1,1.923.53,2.349,2.349,0,0,0,1.535-4.44,18.5,18.5,0,0,0-1.94-.561v-1.1a2.348,2.348,0,1,0-4.7,0v1.03a5.762,5.762,0,0,0-4.692,4.464c-.754,4.843,3.974,6.232,5.755,6.761l.636.184c3.1.887,3.048,1.164,2.969,1.629C1004.692,2042.8,1003.312,2043.119,1001.628,2042.844Z" transform="translate(-116.024 -61.717)" fill="#fff" stroke="#231f20" stroke-width="1"/>
    <path id="Path_7387" data-name="Path 7387" d="M487.9,2051.321a10.292,10.292,0,0,1,7.327,3.031l1.917,1.917a14.049,14.049,0,0,0,7.989-9.459,14.265,14.265,0,0,0,.021-6.695,1.421,1.421,0,0,0-2.382-.647l-6.744,6.744h-7.4V2038.9l6.744-6.743a1.421,1.421,0,0,0-.647-2.382,14.267,14.267,0,0,0-6.695.021,14.068,14.068,0,0,0-10.492,11.393,12.941,12.941,0,0,0-.161,2.39l8.1,8.11A7.457,7.457,0,0,1,487.9,2051.321Zm5.109,5.334a7.262,7.262,0,0,0-8.358-1.361l-10.523-10.443v-6.07l-12.44-9.4-6.264,6.176,9.4,12.44h6.072l10.444,10.434a7.263,7.263,0,0,0,1.362,8.358l11.452,11.461a3.658,3.658,0,0,0,5.159,0l5.163-5.163a3.657,3.657,0,0,0,0-5.159Zm-15.279,2.78-5.795-5.784-14.574,14.574a6.6,6.6,0,1,0,9.34,9.339l11.656-11.656A10.4,10.4,0,0,1,477.732,2059.434Zm-16.043,16.15a2.349,2.349,0,1,1,2.349-2.349A2.35,2.35,0,0,1,461.69,2075.584Z" transform="translate(-8.401 -62.478)" fill="#fff" stroke="#231f20" stroke-width="1"/>
    <path id="Path_7388" data-name="Path 7388" d="M738.131,2004.661a20.094,20.094,0,1,1-20.094,20.094A20.094,20.094,0,0,1,738.131,2004.661Zm0,89.306a53.44,53.44,0,0,1-37.872-15.71,31.062,31.062,0,0,1,28.941-20.012h17.861A31.031,31.031,0,0,1,776,2078.258,53.421,53.421,0,0,1,738.131,2093.967Z" transform="translate(-59.184 -57.35)" fill="#fff" stroke="#231f20" stroke-width="1"/>
    <path id="house-solid" d="M768.649,1792.667a3.133,3.133,0,0,1-3.1,3.112h-3.1l.067,15.526a7.013,7.013,0,0,1-.048.786v1.569a3.878,3.878,0,0,1-3.876,3.879h-1.554c-.106,0-.213-.087-.319-.01-.135-.078-.269.01-.407.01h-5.479a3.878,3.878,0,0,1-3.88-3.877v-8.534a3.1,3.1,0,0,0-3.1-3.1h-6.213a3.1,3.1,0,0,0-3.1,3.1v8.538a3.878,3.878,0,0,1-3.876,3.879h-5.424c-.146,0-.291-.01-.437-.019-.116.009-.232.019-.349.019H722.9a3.878,3.878,0,0,1-3.879-3.878h0V1802.8c0-.087,0-.185.009-.269v-6.753h-3.108a3.074,3.074,0,0,1-3.108-3.039v-.074a3.156,3.156,0,0,1,.97-2.328l24.865-21.673a2.794,2.794,0,0,1,2.134-.777,3.259,3.259,0,0,1,2.046.681l24.759,21.77A2.634,2.634,0,0,1,768.649,1792.667Z" transform="translate(-61.787 -8.237)" fill="#fff" stroke="#231f20" stroke-width="1"/>
  </g>
</svg>
